<svg width="83" height="70" viewBox="0 0 83 70" fill="none" xmlns="http://www.w3.org/2000/svg">
<path d="M68.0206 6.82399C68.0206 3.04799 64.9616 -0.0100098 61.1906 -0.0100098C57.4146 -0.0100098 54.3516 3.04899 54.3516 6.82399C54.3516 10.599 57.4136 13.658 61.1906 13.658C64.9616 13.658 68.0206 10.6 68.0206 6.82399Z" fill="#EC246D"/>
<path d="M0.444336 63.6719L7.78934 69.9319L28.6643 45.4469C30.3933 43.4189 30.1493 40.3719 28.1243 38.6469C26.0953 36.9169 23.0493 37.1569 21.3193 39.1859L0.444336 63.6719Z" fill="#EC246D"/>
<path d="M63.742 20.9011L52.711 11.6751C49.471 8.96205 45.379 7.47705 41.151 7.47705H16.451C13.785 7.47705 11.624 9.63705 11.624 12.3041V17.1301H16.451H35.566C35.95 17.1301 36.321 17.2691 36.608 17.5181C37.275 18.1011 37.342 19.104 36.764 19.767L30.431 27.0231C27.832 30.0061 27.975 34.4901 30.764 37.2961L39.184 45.7681C39.234 45.8191 39.286 45.8691 39.328 45.9281C39.961 46.7291 39.822 47.8981 39.02 48.5311L26.558 58.3561L32.532 65.937L45.59 55.6391C50.285 51.9361 51.091 45.1261 47.387 40.4311C47.134 40.1061 46.856 39.7981 46.565 39.5061L40.237 33.1361C39.536 32.4321 39.503 31.305 40.153 30.559L47.413 22.2401C48.093 21.4641 49.265 21.3711 50.054 22.0331L60.171 30.496C62.597 32.525 66.03 32.8251 68.769 31.2471L79.763 24.9281C82.07 23.5951 82.864 20.6411 81.534 18.3381L79.13 14.1521L74.948 16.5611L66.921 21.1761C65.907 21.7631 64.637 21.6481 63.742 20.9011Z" fill="#EC246D"/>
</svg>
