<svg width="39" height="47" viewBox="0 0 39 47" fill="none" xmlns="http://www.w3.org/2000/svg">
<g id="Clip path group">
<mask id="mask0_38_237" style="mask-type:luminance" maskUnits="userSpaceOnUse" x="0" y="0" width="39" height="47">
<g id="clippath">
<path id="Vector" fill-rule="evenodd" clip-rule="evenodd" d="M18.4679 0C19.6878 0.00966482 20.7018 1.18998 20.1442 2.46453C19.9058 3.01059 19.4048 3.33436 18.757 3.47933C18.4691 3.54336 18.1548 3.43101 17.9766 3.36336C17.2396 3.08187 16.4918 2.15767 16.9362 1.10179C17.1048 0.700699 17.4636 0.316522 17.861 0.144972C18.032 0.0712776 18.3042 0.100272 18.4679 0ZM22.2251 3.82727C22.4274 4.01935 22.4238 4.51588 22.5141 4.81308C22.7851 5.70949 23.0536 6.88135 23.0921 7.94448H23.0632C22.938 7.78984 22.3359 7.52285 22.2829 7.42258V6.40777C22.3708 6.26884 22.3142 5.80131 22.2829 5.65392V4.72609C22.2636 4.42649 22.2444 4.12688 22.2251 3.82727ZM13.2079 3.94324C13.8919 4.09788 14.5759 4.25252 15.2599 4.40716C16.5279 4.82516 17.7659 5.19725 18.9304 5.71191C21.1184 6.67839 22.997 7.95898 24.7973 9.30722C25.5187 9.84724 26.0991 10.5661 26.7915 11.1339C26.7735 11.1846 26.7855 11.1617 26.7626 11.1919C26.6566 11.3453 26.4784 11.4286 26.3291 11.5398C25.9365 11.8309 25.5716 12.1692 25.173 12.4676C24.9792 12.6126 24.8094 12.8723 24.5661 12.9605C24.1567 12.313 23.551 11.8007 23.0921 11.1919C22.9476 11.0566 22.8031 10.9212 22.6586 10.7859C22.2588 10.2544 21.7145 9.7373 21.1847 9.33621C21.098 9.23956 21.0113 9.14292 20.9245 9.04627C20.5199 8.73941 20.1695 8.36127 19.7685 8.06046C18.9051 7.41291 18.0441 6.74967 17.1385 6.14682C16.2702 5.56935 15.3273 5.04624 14.3929 4.55213C14.1544 4.42649 13.3066 4.13775 13.2079 3.94324ZM6.41609 5.04503H7.48544V8.17643C7.48544 8.61135 7.57937 9.25285 7.45654 9.62616C7.19522 9.53796 6.7328 9.59475 6.41609 9.59716V5.04503ZM31.1556 5.04503H32.225V9.59716C32.019 9.59958 31.2519 9.63703 31.1845 9.59716C31.0858 9.4389 31.1556 8.61014 31.1556 8.3504V5.04503ZM11.9362 6.05984C12.2481 6.22414 12.5371 6.59503 12.7455 6.87169C12.8707 6.98766 12.996 7.10364 13.1212 7.21962C13.3115 7.4709 13.5102 7.69078 13.6992 7.94448C14.2074 8.62464 14.7975 9.26977 15.2599 10.0031C16.198 11.4891 16.9109 13.0596 17.572 14.8452C17.8694 15.6473 18.0188 16.4942 18.2656 17.3967C18.3054 17.5416 18.4848 18.1022 18.439 18.2665C18.3656 18.5287 18.132 18.8355 18.0055 19.0783C17.731 19.6063 17.5311 20.1403 17.2252 20.644C17.047 20.9376 16.8314 21.2239 16.6761 21.5429H16.6472V21.5139C16.5737 21.3399 16.6845 20.8833 16.6183 20.5861C16.5701 19.9965 16.5219 19.4069 16.4737 18.8174C16.3654 18.3426 16.3919 17.8243 16.2714 17.3387C15.9692 16.1257 15.8367 14.9056 15.4622 13.7724C14.842 11.901 14.2026 10.0889 13.3235 8.46638C13.0224 7.91065 12.7094 7.32593 12.3698 6.7847C12.2337 6.56724 11.988 6.34737 11.9362 6.05984ZM0.0578039 7.36459H6.32939C6.333 7.69682 6.39321 8.18972 6.30049 8.46638C5.93802 8.34678 5.15045 8.43738 4.71091 8.43738H1.18495C1.12595 8.6186 1.15605 8.93271 1.15605 9.16225V16.0049H0.0578039V7.36459ZM7.57214 7.36459H12.601C12.7214 7.76568 13.0622 8.04958 13.179 8.46638H13.1212C12.9634 8.36973 12.1626 8.43738 11.9073 8.43738H8.7571C8.5295 8.43738 7.68173 8.48571 7.60104 8.43738C7.51554 8.30328 7.56853 7.58809 7.57214 7.36459ZM23.121 7.36459H31.0689C31.0725 7.69682 31.1327 8.18972 31.04 8.46638C30.6631 8.34315 29.8478 8.43738 29.3926 8.43738C27.5514 8.43738 25.6367 8.4398 23.8436 8.46638C23.7496 8.46759 23.2619 8.04958 23.1789 7.97347C23.1596 7.77051 23.1403 7.56755 23.121 7.36459ZM32.3117 7.36459H38.5832V27.2548H37.485V10.206C37.485 9.7216 37.5874 8.83847 37.4561 8.43738C37.1767 8.46396 36.6734 8.43738 36.3 8.43738H33.7278C33.446 8.43738 32.4682 8.50504 32.3406 8.43738C32.2551 8.30328 32.308 7.58809 32.3117 7.36459ZM22.0228 10.264C22.1541 10.3244 22.2167 10.4561 22.3118 10.554C22.6165 10.8693 22.9187 11.21 23.2367 11.5108C23.2487 12.0822 23.2065 12.7515 23.0921 13.2505C23.0825 13.4244 23.0729 13.5984 23.0632 13.7724C22.9284 14.3462 22.8682 15.001 22.7164 15.541C22.5539 16.1221 22.5226 16.6404 22.3407 17.1937C21.7181 19.0868 21.0414 20.8965 20.0864 22.4707C19.6589 23.175 19.1977 23.86 18.7281 24.5293C18.5438 24.7927 18.0428 25.2252 17.9766 25.5441C18.2415 25.6323 18.6979 25.5731 19.0171 25.5731H21.2714C21.9144 26.5227 23.5221 27.436 24.8551 27.7187V27.7477H13.3813V27.6897C13.7426 27.4432 14.1556 26.9419 14.4218 26.5879C14.6024 26.3487 14.8782 26.1602 15.0576 25.921C15.4839 25.3544 15.9126 24.8205 16.3292 24.2394C17.7322 22.281 18.9183 20.3094 19.9419 17.9476C20.3766 16.946 20.6524 15.9337 21.0113 14.8452C21.2244 14.1976 21.4002 13.4401 21.5893 12.7576C21.6278 12.5159 21.6663 12.2743 21.7049 12.0327C21.847 11.4975 21.9734 10.8524 22.0228 10.264ZM0.0578039 18.4405H1.15605V35.1703C1.15605 35.8951 1.07176 36.6079 1.24276 37.2289C1.45229 37.9876 1.7389 38.6593 2.1387 39.2295C2.24949 39.3877 2.42891 39.5134 2.54331 39.6644C3.3959 40.7964 5.78508 41.9042 7.86116 41.2301C9.27491 40.771 10.4237 39.8456 11.2137 38.7656C11.4859 38.3935 11.7544 37.9996 11.994 37.6058C12.0795 37.4657 12.1084 37.2482 12.2542 37.1709C12.3625 37.6082 12.7539 37.9102 12.8033 38.3597C12.6588 38.4768 12.5901 38.6943 12.4854 38.8526C12.3011 39.1304 12.0807 39.3938 11.8784 39.6644C11.233 40.5294 10.1889 41.3545 9.19062 41.868C8.79684 42.0709 8.31274 42.2075 7.86116 42.3319C6.20656 42.7898 4.18226 42.2207 3.15024 41.578C2.88531 41.4125 2.64447 41.1806 2.39881 40.9981C1.30538 40.1815 0.614152 38.9637 0.202308 37.4608C0.0252878 36.8133 0.0578039 36.0244 0.0578039 35.2283V18.4405ZM25.3464 25.5731V27.7187C23.5124 27.6088 21.747 26.1832 20.9534 24.9932C20.715 24.6356 20.3333 24.214 20.2598 23.7175H20.3176C20.5512 24.0569 21.0028 24.2792 21.3581 24.5003C22.4214 25.1636 23.5991 25.5671 25.3464 25.5731ZM18.9015 29.6613C21.9554 29.6009 23.6786 30.989 24.8262 32.8507C25.1429 33.3642 25.3272 33.8957 25.5199 34.5614C25.5656 34.7209 25.7125 35.0942 25.6644 35.2862C25.5415 35.7804 25.267 36.2962 25.0574 36.736H25.0285V36.707C24.9442 36.5934 24.9382 36.4484 24.884 36.301C24.772 36.0002 24.6528 35.6438 24.5661 35.3152C24.5083 35.099 24.5408 34.9419 24.4794 34.7354C24.2145 33.8534 23.616 32.6671 22.9765 32.1838C22.3672 31.7223 21.7759 31.285 20.9824 30.9951C20.1322 30.6846 18.7594 30.6483 17.861 30.9371C16.3341 31.4276 15.0901 32.4327 14.4796 33.8365C14.0713 34.7752 13.9136 35.9785 13.5258 36.9099H13.4969V36.8809C13.2549 36.6248 13.1947 36.1392 13.0634 35.7791C13.0224 35.6656 12.8936 35.4723 12.9189 35.3152C12.9803 34.9323 13.1368 34.4188 13.2657 34.0685C13.8811 32.3916 14.9865 30.9612 16.5605 30.2702C17.0229 30.0672 17.513 29.9211 18.0344 29.7773C18.3234 29.7386 18.6124 29.7 18.9015 29.6613ZM38.5832 29.6613C38.5869 29.9935 38.6471 30.4865 38.5543 30.7631C38.228 30.7003 37.7728 30.7341 37.3983 30.7341H35.2307C33.7326 30.7341 31.8661 30.5626 30.7221 30.9371C29.8274 31.2306 29.1903 31.6801 28.5256 32.1838C28.3558 32.3131 28.2209 32.5318 28.0921 32.7057C27.7862 33.1177 27.4755 33.5309 27.2539 34.0395C27.113 34.362 27.0817 34.6689 26.9649 35.0253C26.7686 35.6233 26.576 36.2298 26.3291 36.794C25.5138 38.6617 23.9447 41.0561 22.1095 41.868C21.4351 42.1664 20.7415 42.2896 19.913 42.4769C19.5843 42.5506 19.0159 42.5143 18.7281 42.4479C18.4511 42.3838 18.2331 42.4322 17.9766 42.3609C17.2613 42.1603 16.6243 41.9236 16.0691 41.578C14.6012 40.6635 13.1513 39.0495 12.4276 37.4028C12.1711 36.8205 11.9675 36.2068 11.7628 35.5762C11.6773 35.314 11.7014 35.0688 11.6183 34.7933C11.5196 34.4635 11.4076 34.1192 11.2715 33.8075C10.6441 32.3711 9.37005 31.4131 7.80336 30.9081C6.96281 30.6375 5.6779 30.7027 4.88432 30.9661C3.61507 31.3865 2.59149 32.1875 1.93639 33.2276C1.74492 33.5321 1.57633 33.8945 1.44507 34.2424C1.38485 34.4031 1.37763 34.7366 1.24276 34.8223V32.3578C1.34632 32.2769 1.39449 32.1464 1.47397 32.0389C1.73408 31.7683 1.99419 31.4976 2.2543 31.227C2.8251 30.7945 3.42119 30.3886 4.13289 30.0962C4.6507 29.8836 5.22993 29.8232 5.83807 29.6903C6.11383 29.6299 6.8183 29.6674 7.05192 29.7193C7.25423 29.7386 7.45654 29.758 7.65885 29.7773C8.3585 29.9609 8.99794 30.1723 9.53743 30.5022C10.5996 31.1509 11.3787 31.8746 12.0229 32.9377C12.6046 33.8969 12.6985 35.2875 13.1501 36.388C13.6848 37.6916 14.4591 38.745 15.3755 39.6644C16.2365 40.5282 16.9169 40.9245 18.2945 41.2881C18.6329 41.3775 19.2495 41.5043 19.7107 41.4041C20.0924 41.3207 20.4826 41.3159 20.8378 41.2011C21.6194 40.9474 22.2444 40.5439 22.832 40.0993C23.2258 39.8021 23.4919 39.3418 23.7858 38.9395C24.5577 37.8812 25.1285 36.8954 25.6644 35.5762C25.9341 34.9117 26.022 34.1615 26.3002 33.5176C26.6133 32.7927 27.0986 32.2237 27.5429 31.6329C27.6766 31.4554 27.9126 31.3031 28.0921 31.169C28.239 31.0591 28.3751 30.8984 28.5256 30.7921C29.2313 30.2956 30.0754 29.9851 31.04 29.7483C31.789 29.5647 32.7958 29.6613 33.67 29.6613H38.5832ZM38.5832 41.4041V42.4769C38.1919 42.6061 37.0876 42.5059 36.5891 42.5059H32.1961C31.8492 42.4769 31.5024 42.4479 31.1556 42.4189C30.4656 42.2352 29.7671 42.1169 29.2192 41.781C28.292 41.2132 27.3105 40.4303 26.6759 39.5774C26.4435 39.2645 26.1894 38.9468 25.9823 38.6206C25.8883 38.472 25.8426 38.3053 25.7222 38.1857C25.833 37.7604 26.1774 37.4451 26.3002 36.9969H26.3291V37.0259C26.4315 37.1358 26.4495 37.2965 26.5314 37.4318C26.6976 37.7061 26.865 38.0057 27.0516 38.2727C27.673 39.1618 28.4931 40.0715 29.4215 40.6502C30.6619 41.4222 32.007 41.4041 34.0168 41.4041H38.5832ZM25.9534 43.9266C26.6952 43.9097 26.7638 44.0849 27.1672 44.3615C27.1492 44.4122 27.1612 44.3893 27.1383 44.4195C27.101 44.5729 27.0095 44.6539 26.936 44.7674H26.8782C26.3977 43.9942 25.1176 44.5186 25.3753 45.5793C25.4801 46.0118 25.8028 46.6001 26.4447 46.3621C26.6506 46.286 26.7686 46.0891 26.9649 46.0142C27.0167 46.164 27.1431 46.2329 27.1961 46.3911C26.9288 46.5747 26.7686 46.791 26.3869 46.884C25.2381 47.1631 24.5661 45.6965 24.9707 44.7384C25.0996 44.4328 25.3693 44.1561 25.6644 44.0136C25.7547 43.9701 25.8775 43.9785 25.9534 43.9266ZM30.173 46.826C30.1971 46.588 30.3259 46.379 30.4042 46.1882C30.6282 45.6433 30.7955 45.1033 31.0111 44.5935C31.1002 44.3845 31.1255 43.958 31.3868 43.9266C31.4783 43.987 31.6108 43.9363 31.7336 43.9266C31.9889 44.5089 32.1768 45.1166 32.4273 45.7242C32.5706 46.0722 32.7645 46.4346 32.8608 46.826H32.3406C32.2948 46.7378 32.1358 46.2474 32.0805 46.2172H30.9244C30.739 46.6605 30.8558 46.8526 30.173 46.826ZM33.6122 46.826H33.092V44.0136C33.151 43.993 33.2269 43.9846 33.3232 43.9846C33.3726 43.952 33.4653 43.9532 33.5544 43.9556C33.7832 44.4835 34.0481 45.0248 34.277 45.5503C34.3564 45.7327 34.395 46.0734 34.566 46.1592C34.6045 45.9876 34.7069 45.8402 34.7683 45.6953C34.9369 45.2966 35.0693 44.8895 35.2307 44.5065C35.2849 44.3772 35.3162 44.0426 35.433 43.9846H35.8665C35.9087 44.0619 35.9243 44.1066 35.9243 44.2455C35.8388 44.382 35.8954 44.7735 35.8954 44.9704C35.9051 45.5793 35.9147 46.1882 35.9243 46.797C35.7979 46.8405 35.5751 46.8284 35.4041 46.826C35.3294 46.6025 35.3728 46.2039 35.3752 45.9272C35.4595 45.7955 35.4077 45.3944 35.4041 45.2023H35.3463V45.2603C35.1765 45.4887 34.9718 46.1072 34.855 46.3911C34.8044 46.5119 34.7875 46.7983 34.6816 46.855H34.3637C34.2023 46.5566 34.1023 46.228 33.959 45.8982C33.8591 45.6675 33.7074 45.4391 33.6411 45.1733H33.5833V45.8982C33.6893 46.0649 33.6158 46.5905 33.6122 46.826ZM0.0289038 43.9846C0.863429 43.9653 2.43012 43.8529 2.1387 44.8834C2.0809 45.0888 1.89304 45.177 1.82078 45.3473C2.38677 45.5213 2.2242 46.4588 1.84969 46.7101C1.50528 46.9408 0.569599 46.8381 0.0289038 46.826C0.0120447 46.7765 0.00361266 46.7342 0 46.6521C0.0662322 46.5445 -0.00240594 46.338 0.0289038 46.1882C0.0818895 45.9393 0.119219 44.939 0.0578039 44.6514C0.0216773 44.4811 -0.0132439 44.1247 0.0289038 43.9846ZM2.54331 43.9846H3.06354C3.10689 44.1114 3.09485 44.3349 3.09244 44.5065C3.03223 44.6019 3.06354 44.8532 3.06354 44.9994C3.06354 45.4669 3.05872 45.99 3.15024 46.3331C3.38145 46.4564 4.11242 46.6243 4.24849 46.2751C4.3653 46.1447 4.3352 45.8559 4.3352 45.6083C4.32556 45.0767 4.31593 44.5451 4.3063 44.0136C4.43274 43.9701 4.65552 43.9822 4.82652 43.9846C4.8771 44.1332 4.85783 44.3978 4.85542 44.5935C4.70008 44.8592 4.90841 45.9864 4.79762 46.3621C4.76029 46.489 4.63866 46.6714 4.5375 46.7391C4.19791 46.965 2.86243 46.9577 2.71672 46.5941C2.55415 46.4201 2.57222 46.0613 2.57222 45.7242C2.56258 45.1444 2.55295 44.5645 2.54331 43.9846ZM5.26004 43.9846H5.80917V46.826H5.26004V43.9846ZM6.24268 43.9846H6.79181C6.78217 44.7868 6.77254 45.5889 6.76291 46.3911C6.96401 46.4588 7.32046 46.4225 7.57214 46.4201C7.66969 46.3573 7.99362 46.3657 8.12127 46.3621C8.14535 46.4334 8.15137 46.5409 8.15017 46.6521C8.12488 46.6895 8.12488 46.7233 8.12127 46.797C8.03216 46.8454 7.93341 46.8574 7.77445 46.855C7.60225 46.7463 6.5618 46.8224 6.27159 46.826C6.23787 46.7282 6.24027 46.5602 6.24268 46.4201C6.32457 46.2884 6.27159 45.9151 6.27159 45.7242C6.26195 45.1444 6.25232 44.5645 6.24268 43.9846ZM8.41028 43.9846C9.30983 43.9701 10.2082 43.9326 10.5779 44.4485C11.1234 45.2108 10.8055 46.4624 10.0577 46.768C9.66629 46.9275 8.90642 46.8333 8.41028 46.826C8.36934 46.7076 8.37897 46.4974 8.38138 46.3331C8.45363 46.2159 8.41028 45.897 8.41028 45.7242V44.4485C8.38499 44.3289 8.37054 44.1066 8.41028 43.9846ZM27.3984 43.9846H27.9187C27.9379 44.0389 27.9464 44.0981 27.9476 44.1875C27.85 44.3398 27.903 44.9885 27.9187 45.1154C28.3064 45.1927 29.0049 45.1915 29.3926 45.1154C29.4191 45.038 29.4227 44.9148 29.4215 44.7964C29.3276 44.6502 29.389 44.1948 29.3926 43.9846C29.5709 43.981 29.8093 43.9677 29.9418 44.0136C29.8936 44.2661 29.9297 44.6152 29.9129 44.9124C29.8791 45.5273 29.9393 46.1761 29.9418 46.797C29.8081 46.8429 29.5721 46.8284 29.3926 46.826C29.377 46.7801 29.3697 46.756 29.3637 46.6811C29.4492 46.547 29.3962 45.8318 29.3926 45.6083H29.3348C29.1903 45.5152 28.1077 45.5696 27.9187 45.6083V46.5071C27.9572 46.5651 27.9512 46.6956 27.9476 46.797C27.8139 46.8429 27.5779 46.8284 27.3984 46.826V43.9846ZM36.8781 46.826H36.3289C36.3314 45.874 36.3639 44.9136 36.3 44.0136C36.6445 43.8988 37.4115 43.9822 37.8318 43.9846C38.0775 44.1537 38.3111 44.1924 38.4676 44.4485C38.8133 45.0151 38.5074 45.8499 38.0341 46.0432C37.7451 46.1616 37.2381 46.0927 36.907 46.0722C36.8564 46.1664 36.8456 46.2824 36.8492 46.4491C36.8961 46.5204 36.8817 46.7076 36.8781 46.826ZM19.2194 47H18.6991C18.6606 46.9106 18.4968 46.4201 18.439 46.3911H17.283C17.2685 46.4455 17.0686 46.9903 17.0518 47H16.5315C16.5641 46.7246 16.7254 46.4491 16.8206 46.2172C17.012 45.7496 17.1565 45.2893 17.3408 44.8544C17.4299 44.6454 17.4829 44.1525 17.7165 44.1006C17.8092 44.1646 17.9875 44.1163 18.0922 44.1006C18.3367 44.6527 18.5173 45.2313 18.757 45.8112C18.9075 46.1773 19.1471 46.5796 19.2194 47ZM0.549125 44.3615C0.549125 44.672 0.549125 44.8302 0.549125 45.1154C0.883898 45.1432 1.22831 45.1226 1.50287 45.0574C1.57994 44.9414 1.64015 44.9112 1.64737 44.7094C1.56067 44.5814 1.57994 44.4763 1.41617 44.4195C1.24517 44.2842 0.794786 44.3289 0.549125 44.3615ZM36.8492 45.6663C37.2899 45.7085 37.8812 45.7738 38.0052 45.4053C38.3352 45.0042 37.9065 44.5681 37.7162 44.3905C37.4392 44.3712 37.1779 44.3893 36.8781 44.3905C36.7697 44.7143 36.8468 45.2833 36.8492 45.6663ZM9.01721 44.3905C8.99553 44.4098 8.95338 44.428 8.9305 44.4485C8.86427 44.5548 8.9016 44.8399 8.9016 44.9994V46.3621H8.9305V46.3911C9.25926 46.4346 9.74697 46.4564 9.97095 46.3041C10.4201 45.9985 10.4803 45.0852 10.1155 44.6514C9.90833 44.405 9.48324 44.3796 9.01721 44.3905ZM31.4735 44.5935C31.4157 44.8242 31.034 45.5708 31.0978 45.7242C31.223 45.8378 31.7023 45.7919 31.8781 45.7532C31.8938 45.7073 31.901 45.6832 31.907 45.6083C31.6831 45.3461 31.7108 44.8423 31.4735 44.5935ZM17.8321 44.7674C17.7442 45.1709 17.4793 45.4717 17.4564 45.9272H17.5142C17.6418 46.0154 18.1741 45.9719 18.2656 45.8982C18.2885 45.868 18.2765 45.8898 18.2945 45.8402C18.0657 45.572 18.0994 44.9946 17.8321 44.7674ZM13.2657 45.0864C13.4608 45.0852 13.5318 45.1347 13.6703 45.1733C13.7185 45.241 13.7667 45.3087 13.8148 45.3763C13.8233 45.5213 13.8594 45.6191 13.7859 45.7242C13.7245 45.9308 13.5403 46.019 13.2657 46.0142C13.226 45.9816 13.1826 45.9707 13.1212 45.9562C12.7659 45.4935 12.8695 45.392 13.2657 45.0864ZM22.254 45.0864C22.4142 45.0864 22.484 45.1166 22.6008 45.1444C22.7297 45.3159 22.808 45.363 22.8031 45.6953C22.6514 45.8849 22.6081 46.0154 22.254 46.0142C22.2022 45.9719 22.1264 45.9465 22.0517 45.9272C22.0035 45.8596 21.9554 45.7919 21.9072 45.7242C21.8988 45.5793 21.8626 45.4814 21.9361 45.3763C21.9951 45.1903 22.1203 45.1915 22.254 45.0864ZM0.549125 46.3911C1.09343 46.4636 1.38606 46.4394 1.67628 46.1592C1.68712 46.0033 1.72685 45.891 1.64737 45.7822C1.57392 45.5563 0.812849 45.4101 0.549125 45.6083C0.504568 45.6747 0.516612 45.8438 0.520224 45.9562C0.57321 46.0384 0.552737 46.2606 0.549125 46.3911Z" fill="white"/>
</g>
</mask>
<g mask="url(#mask0_38_237)">
<g id="Group">
<rect id="Rectangle" x="-31.3594" y="42.9985" width="101.386" height="15.3674" fill="white"/>
</g>
</g>
</g>
</svg>
