<svg width="28" height="31" viewBox="0 0 28 31" fill="none" xmlns="http://www.w3.org/2000/svg">
<path d="M20.1338 10.2689L20.9271 11.0677C21.1474 11.2895 21.1474 11.6448 20.9271 11.8666L5.2427 27.6579C4.53712 28.3684 3.34799 28.3684 2.64417 27.6579L0.529187 25.5283C-0.176396 24.8178 -0.176396 23.6204 0.529187 22.9117L16.1687 7.12036C16.3889 6.89856 16.7417 6.89856 16.962 7.12036L17.7553 7.9192C17.9756 8.141 18.3284 8.141 18.5487 7.9192L26.0829 0.332702C26.5235 -0.110901 27.1843 -0.110901 27.6248 0.332702L27.6696 0.377754C28.1101 0.821358 28.1101 1.48676 27.6696 1.93037L20.134 9.46984C19.9137 9.69164 19.9135 10.0471 20.1338 10.2689ZM12.7321 25.8833C11.6307 25.1295 10.1336 25.2179 9.16297 26.1934C8.19411 27.169 8.10635 28.6783 8.85492 29.7873L12.7321 25.8833ZM9.38496 30.3645C9.34022 30.3195 9.25245 30.2762 9.20943 30.2311C9.16468 30.1861 9.12166 30.0977 9.07692 30.0544L12.9971 26.107C13.0418 26.1521 13.1296 26.1954 13.1726 26.2404C13.2174 26.2855 13.2604 26.3739 13.3051 26.4172L9.38496 30.3645ZM13.1296 30.1878C12.1608 31.1634 10.6618 31.2517 9.56047 30.498L13.4376 26.5939C14.231 27.7029 14.0985 29.2104 13.1296 30.1878Z" fill="#FD8642"/>
</svg>
