<svg width="62" height="62" viewBox="0 0 62 62" fill="none" xmlns="http://www.w3.org/2000/svg">
<path d="M62 30.1812C61.8259 22.1843 58.6281 14.6887 52.9288 9.01577C47.055 3.1668 39.3931 0.167102 31.6804 0C31.2726 8.25858 27.8297 16.0135 21.9524 21.8675C16.0756 27.7204 8.29037 31.1481 0 31.5529C0.174081 39.5497 3.3719 47.0453 9.07121 52.7183C14.9431 58.5672 22.6077 61.5685 30.3196 61.7356C30.7267 53.4766 34.1699 45.7205 40.0476 39.8665C45.9244 34.0137 53.7096 30.5859 62 30.1812Z" fill="#569A86"/>
<path d="M27.787 0.153564C20.9482 0.857255 14.3006 3.8081 9.07117 9.0158C3.97513 14.0882 0.87463 20.6176 0.150391 27.6599C7.35207 27.2261 14.1029 24.2132 19.2167 19.1203C24.3256 14.0316 27.3489 7.31686 27.787 0.153564Z" fill="#569A86"/>
<path d="M34.2129 61.5825C37.0978 61.2855 39.949 60.5923 42.6739 59.4916C46.4075 57.9873 49.9046 55.727 52.9287 52.7183C58.0248 47.6459 61.1253 41.1166 61.8495 34.0742C54.6478 34.5081 47.8971 37.5209 42.7832 42.6139C37.674 47.7029 34.6502 54.4184 34.2129 61.5825Z" fill="#569A86"/>
</svg>
